<svg xmlns="http://www.w3.org/2000/svg">
  <defs>
    <symbol id="icon-crown" viewBox="0 0 1200 1200">
        <svg xmlns="http://www.w3.org/2000/svg" viewBox="0 0 24 30" x="0px" y="0px">
	        <title>ui 78</title>
	        <g data-name="Layer 2">
		        <path d="M22.06,3.18a3.38,3.38,0,0,0-2.57-.32A2,2,0,0,0,17.5,1H6.5a2,2,0,0,0-2,1.86,3.33,3.33,0,0,0-2.57.32,2.27,2.27,0,0,0-.94,2A6.59,6.59,0,0,0,3.11,9.36,1.5,1.5,0,0,1,3.36,11l-.28.64a1,1,0,0,0,.52,1.32A1.1,1.1,0,0,0,4,13a1,1,0,0,0,.92-.6l.27-.63a3,3,0,0,0,.22-.72,7.49,7.49,0,0,0,3.05,3.06.94.94,0,0,1,.54.82V18H7a1,1,0,0,0-1,1v3a1,1,0,0,0,1,1H17a1,1,0,0,0,1-1V19a1,1,0,0,0-1-1H15V14.93a.94.94,0,0,1,.54-.82,7.49,7.49,0,0,0,3.05-3.06,3,3,0,0,0,.22.72l.27.63A1,1,0,0,0,20,13a1.14,1.14,0,0,0,.4-.08,1,1,0,0,0,.52-1.32L20.64,11a1.48,1.48,0,0,1,.25-1.6A6.59,6.59,0,0,0,23,5.17,2.27,2.27,0,0,0,22.06,3.18ZM3,5.17c0-.17,0-.31.08-.34a2.26,2.26,0,0,1,1.42.1V7.5c0,.15,0,.3,0,.44A4.55,4.55,0,0,1,3,5.17ZM19.47,7.94c0-.14,0-.29,0-.44V4.93a2.26,2.26,0,0,1,1.42-.1S21,5,21,5.17A4.55,4.55,0,0,1,19.47,7.94Z"/>
	        </g>
        </svg>
    </symbol>
    <symbol id="icon-grid" viewBox="0 0 1200 1200">
        <svg xmlns="http://www.w3.org/2000/svg" viewBox="0 0 24 30" x="0px" y="0px">
          <g data-name="Layer 2">
            <path d="M 4,11 H 9 a 2,2,0,0,0,2-2 V 4 A 2,2,0,0,0,9,2 H 4 A 2,2,0,0,0,2,4 V 9 A 2,2,0,0,0,4,11 Z"/>
            <path d="M 4,22 H 9 a 2,2,0,0,0,2-2 V 15 a 2,2,0,0,0-2-2 H 4 a 2,2,0,0,0-2,2 v 5 A 2,2,0,0,0,4,22 Z"/>
            <path d="M 15,11 h 5 a 2,2,0,0,0,2-2 V 4 a 2,2,0,0,0-2-2 H 15 a 2,2,0,0,0-2,2 V 9 A 2,2,0,0,0,15,11 Z"/>
            <path d="M 15,22 h 5 a 2,2,0,0,0,2-2 V 15 a 2,2,0,0,0-2-2 H 15 a 2,2,0,0,0-2,2 v 5 A 2,2,0,0,0,15,22 Z"/>
          </g>
        </svg>
    </symbol>
    <symbol id="icon-list" viewBox="0 0 2200 2200">
        <svg xmlns="http://www.w3.org/2000/svg" viewBox="0 0 24 30" x="0px" y="0px">
	        <g data-name="Layer 2">
                <path d="M3,5.5H21a1,1,0,0,0,0-2H3a1,1,0,0,0,0,2Z"/>
		        <path d="M20.5,9.5a1,1,0,0,0-1-1H4.5a1,1,0,0,0,0,2h15A1,1,0,0,0,20.5,9.5Z"/>
		        <path d="M18.5,14.5a1,1,0,0,0-1-1H6.5a1,1,0,0,0,0,2h11A1,1,0,0,0,18.5,14.5Z"/>
		        <path d="M8,18.5a1,1,0,0,0,0,2h8a1,1,0,0,0,0-2Z"/>
	        </g>
        </svg>
    </symbol>
	<symbol id="icon-dark-mode" viewBox="0 0 2200 2200">
		<svg xmlns="http://www.w3.org/2000/svg" viewBox="0 0 24 30" x="0px" y="0px">
			<g data-name="Layer 2">
				<path d="M18,12a6,6,0,1,0-6,6A6,6,0,0,0,18,12Zm-5,3a1,1,0,0,1-1-1V10a1,1,0,0,1,1-1,3,3,0,0,1,0,6Z"/>
				<path d="M11,3V4a1,1,0,0,0,2,0V3a1,1,0,0,0-2,0Z"/>
				<path d="M19.07,4.93a1,1,0,0,0-1.41,0L17,5.64a1,1,0,0,0,0,1.41,1,1,0,0,0,.71.29,1,1,0,0,0,.7-.29l.71-.71A1,1,0,0,0,19.07,4.93Z"/>
				<path d="M21,11H20a1,1,0,0,0,0,2h1a1,1,0,0,0,0-2Z"/>
				<path d="M17.66,19.07a1,1,0,0,0,1.41,0,1,1,0,0,0,0-1.41L18.36,17A1,1,0,0,0,17,18.36Z"/>
				<path d="M11,20v1a1,1,0,0,0,2,0V20a1,1,0,0,0-2,0Z"/>
				<path d="M4.93,19.07a1,1,0,0,0,1.41,0l.71-.71A1,1,0,0,0,5.64,17l-.71.71A1,1,0,0,0,4.93,19.07Z"/>
				<path d="M3,11a1,1,0,0,0,0,2H4a1,1,0,0,0,0-2Z"/>
				<path d="M4.93,6.34l.71.71a1,1,0,0,0,.7.29,1,1,0,0,0,.71-.29,1,1,0,0,0,0-1.41l-.71-.71A1,1,0,0,0,4.93,6.34Z"/>
			</g>
		</svg>
	</symbol>
	<symbol id="icon-light-mode" viewBox="0 0 2200 2200">
		<svg xmlns="http://www.w3.org/2000/svg" viewBox="0 0 24 30" x="0px" y="0px">
			<g data-name="Layer 2">
				<path d="M12,9a1,1,0,0,0-1,1v4a1,1,0,0,0,1,1,3,3,0,0,0,0-6Z"/>
				<path d="M18,12a6,6,0,1,0-6,6A6,6,0,0,0,18,12Zm-6,4a4,4,0,1,1,4-4A4,4,0,0,1,12,16Z"/>
				<path d="M11,3V4a1,1,0,0,0,2,0V3a1,1,0,0,0-2,0Z"/>
				<path d="M19.07,4.93a1,1,0,0,0-1.41,0L17,5.64a1,1,0,0,0,0,1.41,1,1,0,0,0,.71.29,1,1,0,0,0,.7-.29l.71-.71A1,1,0,0,0,19.07,4.93Z"/>
				<path d="M21,11H20a1,1,0,0,0,0,2h1a1,1,0,0,0,0-2Z"/>
				<path d="M17.66,19.07a1,1,0,0,0,1.41,0,1,1,0,0,0,0-1.41L18.36,17A1,1,0,0,0,17,18.36Z"/>
				<path d="M11,20v1a1,1,0,0,0,2,0V20a1,1,0,0,0-2,0Z"/>
				<path d="M4.93,19.07a1,1,0,0,0,1.41,0l.71-.71A1,1,0,0,0,5.64,17l-.71.71A1,1,0,0,0,4.93,19.07Z"/>
				<path d="M3,11a1,1,0,0,0,0,2H4a1,1,0,0,0,0-2Z"/>
				<path d="M4.93,6.34l.71.71a1,1,0,0,0,.7.29,1,1,0,0,0,.71-.29,1,1,0,0,0,0-1.41l-.71-.71A1,1,0,0,0,4.93,6.34Z"/>
			</g>
		</svg> 
	</symbol>
  </defs>
</svg>