<svg xmlns="http://www.w3.org/2000/svg" viewBox="0 0 24 30" x="0px" y="0px"><title>ui 69</title><g data-name="Layer 2"><path d="M18,12a6,6,0,1,0-6,6A6,6,0,0,0,18,12Zm-5,3a1,1,0,0,1-1-1V10a1,1,0,0,1,1-1,3,3,0,0,1,0,6Z"/><path d="M11,3V4a1,1,0,0,0,2,0V3a1,1,0,0,0-2,0Z"/><path d="M19.07,4.93a1,1,0,0,0-1.41,0L17,5.64a1,1,0,0,0,0,1.41,1,1,0,0,0,.71.29,1,1,0,0,0,.7-.29l.71-.71A1,1,0,0,0,19.07,4.93Z"/><path d="M21,11H20a1,1,0,0,0,0,2h1a1,1,0,0,0,0-2Z"/><path d="M17.66,19.07a1,1,0,0,0,1.41,0,1,1,0,0,0,0-1.41L18.36,17A1,1,0,0,0,17,18.36Z"/><path d="M11,20v1a1,1,0,0,0,2,0V20a1,1,0,0,0-2,0Z"/><path d="M4.93,19.07a1,1,0,0,0,1.41,0l.71-.71A1,1,0,0,0,5.64,17l-.71.71A1,1,0,0,0,4.93,19.07Z"/><path d="M3,11a1,1,0,0,0,0,2H4a1,1,0,0,0,0-2Z"/><path d="M4.93,6.34l.71.71a1,1,0,0,0,.7.29,1,1,0,0,0,.71-.29,1,1,0,0,0,0-1.41l-.71-.71A1,1,0,0,0,4.93,6.34Z"/></g><text x="0" y="39" fill="#000000" font-size="5px" font-weight="bold" font-family="'Helvetica Neue', Helvetica, Arial-Unicode, Arial, Sans-serif">Created by Anggara Putra</text><text x="0" y="44" fill="#000000" font-size="5px" font-weight="bold" font-family="'Helvetica Neue', Helvetica, Arial-Unicode, Arial, Sans-serif">from the Noun Project</text></svg>