<svg xmlns="http://www.w3.org/2000/svg" viewBox="0 0 24 30" x="0px" y="0px">
  <g data-name="Layer 2">
    <path d="M 4,11 H 9 a 2,2,0,0,0,2-2 V 4 A 2,2,0,0,0,9,2 H 4 A 2,2,0,0,0,2,4 V 9 A 2,2,0,0,0,4,11 Z"/>
    <path d="M 4,22 H 9 a 2,2,0,0,0,2-2 V 15 a 2,2,0,0,0-2-2 H 4 a 2,2,0,0,0-2,2 v 5 A 2,2,0,0,0,4,22 Z"/>
    <path d="M 15,11 h 5 a 2,2,0,0,0,2-2 V 4 a 2,2,0,0,0-2-2 H 15 a 2,2,0,0,0-2,2 V 9 A 2,2,0,0,0,15,11 Z"/>
    <path d="M 15,22 h 5 a 2,2,0,0,0,2-2 V 15 a 2,2,0,0,0-2-2 H 15 a 2,2,0,0,0-2,2 v 5 A 2,2,0,0,0,15,22 Z"/>
  </g>
</svg>